HIERARCHY
ROOT joint_Root
{
	OFFSET 0.0 0.0 0.0
	CHANNELS 6 Xposition Yposition Zposition Zrotation Xrotation Yrotation 
	JOINT Hips
	{
		OFFSET 4.5925 91.4895 -427.239
		CHANNELS 6 Xposition Yposition Zposition Zrotation Xrotation Yrotation 
		JOINT Spine
		{
			OFFSET 15.7357 0.0 0.0
			CHANNELS 6 Xposition Yposition Zposition Zrotation Xrotation Yrotation 
			JOINT Chest
			{
				OFFSET 8.98455 -0.406207 0.0
				CHANNELS 6 Xposition Yposition Zposition Zrotation Xrotation Yrotation 
				JOINT Neck
				{
					OFFSET 16.3773 0.0 0.0
					CHANNELS 6 Xposition Yposition Zposition Zrotation Xrotation Yrotation 
					JOINT Head
					{
						OFFSET 6.45672 0.0 0.0
						CHANNELS 6 Xposition Yposition Zposition Zrotation Xrotation Yrotation 
						End Site
						{
							OFFSET 0.0 0.0 0.0
						}
					}
				}
				JOINT Shoulder_L
				{
					OFFSET 12.9942 -0.242716 4.98039
					CHANNELS 6 Xposition Yposition Zposition Zrotation Xrotation Yrotation 
					JOINT UpperArm_L
					{
						OFFSET 5.34809 0.0 0.0
						CHANNELS 6 Xposition Yposition Zposition Zrotation Xrotation Yrotation 
						JOINT LowerArm_L
						{
							OFFSET 24.3286 1.87007e-05 0.0
							CHANNELS 6 Xposition Yposition Zposition Zrotation Xrotation Yrotation 
							JOINT Hand_L
							{
								OFFSET 22.2916 0.0 0.0
								CHANNELS 6 Xposition Yposition Zposition Zrotation Xrotation Yrotation 
								End Site
								{
									OFFSET 0.0 0.0 0.0
								}
							}
						}
					}
				}
				JOINT Shoulder_R
				{
					OFFSET 12.9945 -0.242716 -4.98039
					CHANNELS 6 Xposition Yposition Zposition Zrotation Xrotation Yrotation 
					JOINT UpperArm_R
					{
						OFFSET -5.34813 0.0 0.0
						CHANNELS 6 Xposition Yposition Zposition Zrotation Xrotation Yrotation 
						JOINT LowerArm_R
						{
							OFFSET -24.3289 0.000322201 0.0
							CHANNELS 6 Xposition Yposition Zposition Zrotation Xrotation Yrotation 
							JOINT Hand_R
							{
								OFFSET -22.2915 -0.000108084 0.0
								CHANNELS 6 Xposition Yposition Zposition Zrotation Xrotation Yrotation 
								End Site
								{
									OFFSET 0.0 0.0 0.0
								}
							}
						}
					}
				}
			}
		}
		JOINT UpperLeg_L
		{
			OFFSET -2.19248 -6.46944 0.0
			CHANNELS 6 Xposition Yposition Zposition Zrotation Xrotation Yrotation 
			JOINT LowerLeg_L
			{
				OFFSET 39.0811 0.0 -1.23785e-05
				CHANNELS 6 Xposition Yposition Zposition Zrotation Xrotation Yrotation 
				JOINT Foot_L
				{
					OFFSET 40.9854 0.0 -1.26872e-05
					CHANNELS 6 Xposition Yposition Zposition Zrotation Xrotation Yrotation 
					JOINT Toes_L
					{
						OFFSET 11.7543 0.0 0.0
						CHANNELS 6 Xposition Yposition Zposition Zrotation Xrotation Yrotation 
						End Site
						{
							OFFSET 0.0 0.0 0.0
						}
					}
				}
			}
		}
		JOINT UpperLeg_R
		{
			OFFSET -2.19251 6.46944 0.0
			CHANNELS 6 Xposition Yposition Zposition Zrotation Xrotation Yrotation 
			JOINT LowerLeg_R
			{
				OFFSET -39.0811 -0.00228153 -0.0401928
				CHANNELS 6 Xposition Yposition Zposition Zrotation Xrotation Yrotation 
				JOINT Foot_R
				{
					OFFSET -40.9854 0.0 0.0
					CHANNELS 6 Xposition Yposition Zposition Zrotation Xrotation Yrotation 
					JOINT Toes_R
					{
						OFFSET -11.7543 0.0 0.0
						CHANNELS 6 Xposition Yposition Zposition Zrotation Xrotation Yrotation 
						End Site
						{
							OFFSET 0.0 0.0 0.0
						}
					}
				}
			}
		}
	}
}
MOTION
Frames:	4
Frame Time:	0.0333333
0.000000 0.000000 0.000000 0.000000 0.000000 -0.000000 98.187300 84.791800 178.777000 -79.406100 48.633000 177.140000 15.735700 0.000005 -0.000001 91.850000 83.514400 -90.530900 8.984550 -0.406207 -0.000000 5.195490 0.388299 2.617430 16.377300 -0.000001 -0.000001 0.821671 11.771000 -2.291400 6.456720 -0.000001 -0.000000 -0.315912 17.145800 -4.100450 12.994200 -0.242716 4.980390 -90.481800 1.328170 -70.038400 5.348090 -0.000007 -0.000001 -68.000400 41.348700 11.383800 24.328600 0.000019 0.000005 0.499820 0.173451 -71.102100 22.291600 -0.000001 0.000005 11.277300 5.533350 -7.945740 12.994500 -0.242716 -4.980390 88.400700 9.627240 -80.523900 -5.348130 -0.000001 -0.000004 -54.247300 40.300500 -22.175900 -24.328900 0.000322 -0.000009 -10.104000 1.634120 -99.097800 -22.291500 -0.000108 -0.000004 18.345400 5.639930 -14.127600 -2.192480 -6.469440 -0.000000 -175.849000 -5.167410 -11.775100 39.081100 -0.000007 -0.000012 0.093708 -0.015455 80.630200 40.985400 -0.000006 -0.000013 16.810300 -16.966700 -45.917800 11.754300 -0.000000 0.000003 -0.010707 -0.108860 -21.013000 -2.192510 6.469440 -0.000001 176.433000 15.127900 162.883000 -39.081100 -0.002282 -0.040193 -0.078815 0.068108 50.308500 -40.985400 0.000008 0.000006 -2.393160 8.033030 -76.379300 -11.754300 -0.000006 -0.000006 -0.000211 -0.003471 -16.714800
0.000000 0.000000 0.000000 0.000000 0.000000 -0.000000 100.758000 86.460000 176.089000 -80.894500 46.468600 178.146000 15.735700 0.000005 -0.000001 106.107000 83.317400 -105.082000 8.984550 -0.406207 -0.000000 5.050600 3.676090 1.886680 16.377300 -0.000001 -0.000001 1.172000 10.466500 -1.572430 6.456720 -0.000001 -0.000000 -0.327990 13.797300 -3.784830 12.994200 -0.242716 4.980390 -89.598300 -1.033550 -68.769800 5.348090 -0.000007 -0.000001 -66.371100 46.306900 16.131800 24.328600 0.000019 0.000005 3.286270 0.717063 -77.624000 22.291600 -0.000001 0.000005 9.243640 5.539300 -8.203240 12.994500 -0.242716 -4.980390 88.925000 6.826550 -81.029800 -5.348130 -0.000001 -0.000004 -55.930200 36.583200 -28.259900 -24.328900 0.000322 -0.000009 -10.783100 3.399290 -107.282000 -22.291500 -0.000108 -0.000004 18.810600 5.629270 -13.281100 -2.192480 -6.469440 -0.000000 -179.459000 -4.435470 -18.233100 39.081100 -0.000007 -0.000012 -0.001329 0.000188 82.258900 40.985400 -0.000006 -0.000013 17.125400 -16.960300 -49.569300 11.754300 -0.000000 0.000003 -0.010204 -0.105164 -20.861800 -2.192510 6.469440 -0.000001 174.906000 16.473000 169.097000 -39.081100 -0.002282 -0.040193 -0.005524 0.009087 44.052900 -40.985400 0.000008 0.000006 -2.592800 7.178310 -75.461800 -11.754300 -0.000006 -0.000006 -0.253692 -0.315818 -17.145600
0.000000 0.000000 0.000000 0.000000 0.000000 -0.000000 102.855000 88.303700 173.446000 -82.770300 44.253400 177.772000 15.735700 0.000005 -0.000001 119.558000 83.220600 -119.127000 8.984550 -0.406207 -0.000000 4.025610 6.664690 0.628943 16.377300 -0.000001 -0.000001 1.185730 9.159720 -1.444870 6.456720 -0.000001 -0.000000 -0.090228 10.627300 -2.597650 12.994200 -0.242716 4.980390 -88.539400 -3.598640 -67.896900 5.348090 -0.000007 -0.000001 -64.406900 49.025800 19.244000 24.328600 0.000019 0.000005 4.996200 0.537335 -83.884300 22.291600 -0.000001 0.000005 6.614130 5.538380 -8.165470 12.994500 -0.242716 -4.980390 89.360700 4.079440 -81.085500 -5.348130 -0.000001 -0.000004 -56.594200 33.427200 -32.764600 -24.328900 0.000322 -0.000009 -11.153900 5.074110 -114.161000 -22.291500 -0.000108 -0.000004 18.370600 5.612090 -12.090500 -2.192480 -6.469440 -0.000000 176.752000 -2.971390 -24.718000 39.081100 -0.000007 -0.000012 -0.051611 0.009927 79.120700 40.985400 -0.000006 -0.000013 14.705200 -12.623300 -54.289500 11.754300 -0.000000 0.000003 -0.009972 -0.103441 -20.791300 -2.192510 6.469440 -0.000001 173.173000 19.052000 173.605000 -39.081100 -0.002282 -0.040193 -0.023307 0.035655 36.718000 -40.985400 0.000008 0.000006 -3.156450 7.530760 -71.393700 -11.754300 -0.000006 -0.000006 -1.243020 -1.484390 -18.961500
0.000000 0.000000 0.000000 0.000000 0.000000 -0.000000 105.092000 89.817200 170.706000 -83.783400 42.422000 176.980000 15.735700 0.000005 -0.000001 128.977000 82.897100 -129.090000 8.984550 -0.406207 -0.000000 3.321210 8.929780 -0.485113 16.377300 -0.000001 -0.000001 1.145520 8.151450 -1.361750 6.456720 -0.000001 -0.000000 -0.244549 8.358680 -1.564300 12.994200 -0.242716 4.980390 -87.556400 -5.763130 -66.977200 5.348090 -0.000007 -0.000001 -63.046900 49.079400 22.468600 24.328600 0.000019 0.000005 3.764120 0.046759 -89.300000 22.291600 -0.000001 0.000005 5.973970 5.532930 -7.924350 12.994500 -0.242716 -4.980390 89.733600 1.711700 -81.154400 -5.348130 -0.000001 -0.000004 -55.816900 31.246800 -36.766800 -24.328900 0.000322 -0.000009 -10.375300 5.849810 -119.104000 -22.291500 -0.000108 -0.000004 17.848400 5.594590 -11.018700 -2.192480 -6.469440 -0.000000 174.457000 -2.877940 -28.788200 39.081100 -0.000007 -0.000012 -0.052421 0.017302 71.740200 40.985400 -0.000006 -0.000013 11.901500 -8.943210 -58.512400 11.754300 -0.000000 0.000003 -0.008985 -0.095897 -20.482900 -2.192510 6.469440 -0.000001 171.417000 23.482700 177.732000 -39.081100 -0.002282 -0.040193 -0.051983 0.093752 30.527000 -40.985400 0.000008 0.000006 -2.832970 10.178600 -65.090900 -11.754300 -0.000006 -0.000006 -2.839230 -3.095810 -23.145000
